

Release info:

General
Format : Matroska
Format version : Version 2
File size : 692 MiB
Duration : 1h 59mn
Overall bit rate : 812 Kbps
Movie name : Dabangg 2

Video
ID : 1
Format : MPEG-4 Visual
Format profile : Advanced Simple@L5
Format settings, BVOP : Yes
Format settings, QPel : No
Format settings, GMC : No warppoints
Format settings, Matrix : Default (H.263)
Codec ID : V_MS/VFW/FOURCC / XVID
Codec ID/Hint : XviD
Duration : 1h 59mn
Bit rate : 716 Kbps
Width : 656 pixels
Height : 256 pixels
Display aspect ratio : 2.668
Original display aspect ratio : 2.667
Frame rate mode : Constant
Frame rate : 23.976 fps
Color space : YUV
Chroma subsampling : 4:2:0
Bit depth : 8 bits
Scan type : Progressive
Compression mode : Lossy
Bits/(Pixel*Frame) : 0.178
Stream size : 610 MiB (88%)
Title : Dabangg 2
Language : Hindi
Default : Yes
Forced : No

Audio
ID : 2
Format : MPEG Audio
Format version : Version 1
Format profile : Layer 3
Mode : Joint stereo
Mode extension : MS Stereo
Muxing mode : Header stripping
Codec ID : A_MPEG/L3
Codec ID/Hint : MP3
Duration : 1h 59mn
Bit rate mode : Constant
Bit rate : 80.0 Kbps
Channel(s) : 2 channels
Sampling rate : 32.0 KHz
Compression mode : Lossy
Stream size : 68.2 MiB (10%)
Title : Dabangg 2
Writing library : LAMEWY6B
Language : Hindi
Default : Yes
Forced : No

Text
ID : 3
Format : UTF-8
Codec ID : S_TEXT/UTF8
Codec ID/Info : UTF-8 Plain Text
Title : Dabangg 2
Language : English
Default : Yes
Forced : No



Source:
credit to original movie ripper DDR (Thanks)

IMDB Info:

Chulbul Pandey is transferred and promoted to Lucknow. He is happily married with Rajjo and has a child. Lucknow witness a lot of criminal activities daily and kidnapping, rape and murders are done in broad daylight. The main antagonist/villain is a politician and a strong contender for the upcoming elections and Chulbul Pandey sabotages his political image by ...
Director: Arbaaz Khan
Writer: Dilip Shukla
Stars: Salman Khan, Kareena Kapoor and Sonakshi Sinha

Genres: Action | Comedy | Drama | Musical | Romance
 
http://www.imdb.com/title/tt2112131/

Screen Shot:
 
http://www.shotpix.com/images/30203250414543723552.png 
http://www.shotpix.com/images/38230725076020717698.png 
http://www.shotpix.com/images/18913339772733376861.png 
http://www.shotpix.com/images/23673289487603093729.png 
http://www.shotpix.com/images/37569383029261829579.png 
http://www.shotpix.com/images/15951281925375136499.png